<?xml version="1.0" encoding="utf-8"?>
<!-- Svg Vector Icons : http://www.onlinewebfonts.com/icon -->
<!DOCTYPE svg PUBLIC "-//W3C//DTD SVG 1.1//EN" "http://www.w3.org/Graphics/SVG/1.1/DTD/svg11.dtd">
<svg version="1.1" xmlns="http://www.w3.org/2000/svg" xmlns:xlink="http://www.w3.org/1999/xlink" x="0px" y="0px" viewBox="0 0 256 256" enable-background="new 0 0 256 256" xml:space="preserve">
<metadata> Svg Vector Icons : http://www.onlinewebfonts.com/icon </metadata>
<g><g><path fill="#000000" d="M128,246c-65.2,0-118-52.8-118-118c0-6.2,0.6-12.2,1.5-18.1v-3.1c0,0,0.1,0.1,0.4,0.4C21.8,52,69.9,10,128,10c65.2,0,118,52.8,118,118C246,193.2,193.2,246,128,246z M184.5,105.6c0.2-1.3,0.3-2.6,0.3-4c0-1.9-0.2-3.8-0.6-5.6c10.6-1.2,22-1.7,34.3-1.3c-4-10.9-9.8-20.8-17.2-29.5c-5.4,3-14.3,8.7-23.5,17.7c-1.8-2.1-3.9-3.9-6.3-5.4c9.3-9.7,18-16,23.1-19.3c-7.8-7.4-16.8-13.6-26.7-18.1c-8.9,1-31.6,4.8-55.5,18.7c0.3,0.9,0.5,1.9,0.5,2.9c8.9,4.3,18.2,9.6,27.3,16.1c-2,1.3-3.8,3-5.4,4.8c-6.9-5-14.8-9.8-23.7-14c-2.1,3.2-5.6,5.3-9.7,5.3c-2.7,0-5.1-0.9-7.1-2.5C80.3,83,66.8,99.1,56.8,120.9c2.4,2.1,3.9,5.2,3.9,8.7c0,1.9-0.5,3.7-1.3,5.3c4.1,2.2,8.6,4.5,13.3,6.6c2.6-2.5,6.2-4.1,10.1-4.1c1.2,0,2.4,0.2,3.6,0.5c11.1-10.1,25.1-19.9,42.8-27.6c1.1,3.3,2.7,6.3,4.8,8.9c-13.8,5.7-27.5,13.4-39.7,23.8c1.8,2.3,2.9,5.1,3.2,8.1c11.9,3.9,24.9,7.1,39,9c0.5-12.4,2.7-23.7,6-33.8c2.4,1.3,4.9,2.3,7.6,3c-2.8,9.4-4.7,19.9-5.2,31.8c8.8,0.8,17.9,1.2,27.4,0.9c1.4-3.7,4.2-6.8,7.8-8.3c-1.6-9.1-4.4-18.5-8.7-27.9c2.7-1.7,5.2-3.9,7.2-6.4c5.4,9.9,9.4,21.1,11.3,33.6c3.6,1,6.6,3.4,8.5,6.5c7.3-1.1,14.8-2.7,22.5-4.7c2.5-8.5,3.9-17.6,3.9-26.9c0-8.8-1.3-17.2-3.4-25.3C214.5,102.7,201.1,103.1,184.5,105.6z M68.7,148.6c-5.5-2.7-10.6-5.5-15.2-8.2c-1.3,0.6-2.8,0.9-4.4,0.9c0,0,0,0,0,0c-2.9,9.5-5.2,19.8-6.9,31.1c2.6,4.9,5.5,9.5,8.8,13.9c2.3-5.3,7.8-16.7,18-29.6c-0.5-1.4-0.8-2.9-0.8-4.6C68.2,150.9,68.4,149.7,68.7,148.6z M154.4,208.7c0,1.4-2.3,5.8-2.9,7c0.7,2.6,1.1,2.8,1.9,5.5c8.7-2.4,17-5.9,24.5-10.5c1.6-6.4,3.6-16.9,4-29.5c-5.3-1.5-9.4-5.8-10.4-11.2c-9.3,0.4-18.2,0.2-26.8-0.5c0.2,10.2,1.4,20.1,4,32.1C150.8,203,154.4,206,154.4,208.7z M217.9,163.1c-6,1.4-11.8,2.7-17.6,3.7c0,0.1,0,0.2,0,0.3c0,6.4-4.1,11.8-9.8,13.7c-0.6,7.6-1.9,15.5-4,23.9C200.5,194,211.4,179.7,217.9,163.1z M128,224.6c6.2,0,12.3-0.7,18.3-1.8c-0.6-1.9-1.2-3.8-1.8-5.7c0,0-0.1,0-0.1,0c-4.3,0-7.9-3.5-7.9-7.9c0-2.9,1.6-5.5,4-6.8c-2.7-12.1-4.1-23.4-4.3-33.9c-15-1.8-28.6-5.1-40.8-9.1c-2.6,4.3-7.2,7.2-12.5,7.2c-3.1,0-6-1-8.4-2.7c-6.5,8.9-12,19.1-16.3,30.7C75.8,213.1,100.5,224.6,128,224.6z M36.2,158c1-5.1,2.5-11.9,5.1-19.9c-2.2-2.1-3.7-5-3.7-8.3c-2.3-1.7-4.2-3.2-6-4.6c0,0.9-0.1,1.8-0.1,2.7C31.4,138.5,33.1,148.6,36.2,158z M32,117.5c2.2,1.7,4.8,3.5,7.7,5.5c2.1-3,5.5-4.9,9.5-4.9c0,0,0,0,0.1,0c8.2-17.7,21.2-37,41.1-52.9c-0.2-0.9-0.4-1.9-0.4-2.8c0-0.7,0.1-1.5,0.2-2.2c-7.3-2.5-15.1-4.7-23.6-6.7C47.7,69,34.8,91.7,32,117.5z M74.7,47.5c4.3,1.1,11,3.1,19.2,6.1c2-1.8,4.7-2.9,7.6-2.9c2.5,0,4.9,0.8,6.8,2.2c13.6-7.6,29.6-13.6,48.6-17.1c-9.1-2.9-18.8-4.4-28.9-4.4C108.3,31.4,90,37.3,74.7,47.5z M156.2,121.5c-11.2,0-20.3-9.1-20.3-20.3C135.9,90,145,81,156.2,81c11.2,0,20.3,9.1,20.3,20.3C176.4,112.4,167.3,121.5,156.2,121.5z M156.2,92.3c-4.9,0-8.9,4-8.9,8.9c0,4.9,4,8.9,8.9,8.9c4.9,0,8.9-4,8.9-8.9C165.1,96.3,161.1,92.3,156.2,92.3z"/></g></g>
</svg>